<svg xmlns="http://www.w3.org/2000/svg" viewBox="0 0 1024 1024">
  <circle cx="512" cy="512" r="448" fill="#24533A"/>
  <path d="M184 690c31-158 84-324 174-328 91-4 102 260 163 258 68-3 77-258 166-258 86 0 114 168 143 307" fill="none" stroke="#F7F1DE" stroke-width="82" stroke-linecap="round" stroke-linejoin="round"/>
  <circle cx="184" cy="690" r="53" fill="#E6B86F"/>
  <circle cx="184" cy="690" r="21" fill="#FFF7E6"/>
  <path d="M827 655c-10-63 29-113 97-126 4 68-30 118-97 126Z" fill="#B7D99E"/>
  <path d="M822 661c-56-16-87-55-86-116 60 14 92 52 86 116Z" fill="#7FB178"/>
</svg>
