<svg xmlns="http://www.w3.org/2000/svg" viewBox="0 0 1024 1024">
  <path d="M512 152C581 145 650 163 705 202C772 224 822 283 835 352C870 411 873 486 852 548C858 622 824 696 767 742C731 811 658 851 584 850C522 876 446 865 391 835C319 835 252 791 220 727C163 682 140 607 158 539C132 469 150 390 190 334C206 263 265 211 335 194C382 159 448 145 512 152Z" fill="#326B3D"/>
  <path d="M198 409C236 287 357 197 514 176C470 218 442 267 433 322C389 311 345 320 311 349C279 376 259 415 254 460C234 449 215 432 198 409Z" fill="#8FB778"/>
  <path d="M700 208C786 252 828 345 820 455C814 535 780 600 720 650C672 690 616 708 558 698C594 644 604 587 588 531C572 474 540 432 493 402C565 382 618 335 650 270C664 242 681 221 700 208Z" fill="#1F5133"/>
  <path d="M273 737C315 653 387 601 472 591C521 585 568 596 611 623C570 665 550 718 553 782C468 837 355 822 273 737Z" fill="#5F914F"/>
</svg>
