<svg xmlns="http://www.w3.org/2000/svg" viewBox="0 0 96 96" role="img" aria-label="Moss">
  <path d="M48 14.25C54.47 13.59 60.94 15.28 66.09 18.94C72.38 21 77.06 26.53 78.28 33C81.56 38.53 81.84 45.56 79.88 51.38C80.44 58.31 77.25 65.25 71.91 69.56C68.53 76.03 61.69 79.78 54.75 79.69C48.94 82.13 41.81 81.09 36.66 78.28C29.91 78.28 23.63 74.16 20.63 68.16C15.28 63.94 13.13 56.91 14.81 50.53C12.38 43.97 14.06 36.56 17.81 31.31C19.31 24.66 24.84 19.78 31.41 18.19C35.81 14.91 42 13.59 48 14.25Z" fill="#2F693C"/>
  <path d="M22.97 40.31C25.69 28.59 36.66 19.78 49.59 18.66C44.63 22.31 41.06 27.09 39.47 32.63C34.03 33.38 29.06 36.09 25.59 40.5C24.66 41.72 23.63 41.72 22.97 40.31Z" fill="#83AC6C"/>
</svg>
