<svg xmlns="http://www.w3.org/2000/svg" viewBox="0 0 96 96" role="img" aria-label="Moss">
  <path d="M48 14.25C54.47 13.59 60.94 15.28 66.09 18.94C72.38 21 77.06 26.53 78.28 33C81.56 38.53 81.84 45.56 79.88 51.38C80.44 58.31 77.25 65.25 71.91 69.56C68.53 76.03 61.69 79.78 54.75 79.69C48.94 82.13 41.81 81.09 36.66 78.28C29.91 78.28 23.63 74.16 20.63 68.16C15.28 63.94 13.13 56.91 14.81 50.53C12.38 43.97 14.06 36.56 17.81 31.31C19.31 24.66 24.84 19.78 31.41 18.19C35.81 14.91 42 13.59 48 14.25Z" fill="#326B3D"/>
  <path d="M18.56 38.34C22.13 26.91 33.47 18.47 48.19 16.5C44.06 20.44 41.44 25.03 40.59 30.19C36.47 29.16 32.34 30 29.16 32.72C26.16 35.25 24.28 38.91 23.81 43.13C21.94 42.09 20.16 40.5 18.56 38.34Z" fill="#8FB778"/>
  <path d="M65.63 19.5C73.69 23.63 77.63 32.34 76.88 42.66C76.31 50.16 73.13 56.25 67.5 60.94C63 64.69 57.75 66.38 52.31 65.44C55.69 60.38 56.63 55.03 55.13 49.78C53.63 44.44 50.63 40.5 46.22 37.69C52.97 35.81 57.94 31.41 60.94 25.31C62.25 22.69 63.84 20.72 65.63 19.5Z" fill="#1F5133"/>
  <path d="M25.59 69.09C29.53 61.22 36.28 56.34 44.25 55.41C48.84 54.84 53.25 55.88 57.28 58.41C53.44 62.34 51.56 67.31 51.84 73.31C43.88 78.47 33.28 77.06 25.59 69.09Z" fill="#5F914F"/>
</svg>
