<svg xmlns="http://www.w3.org/2000/svg" viewBox="0 0 96 96" role="img" aria-label="Moss">
  <defs>
    <clipPath id="ball">
      <path d="M48 14.25C54.47 13.59 60.94 15.28 66.09 18.94C72.38 21 77.06 26.53 78.28 33C81.56 38.53 81.84 45.56 79.88 51.38C80.44 58.31 77.25 65.25 71.91 69.56C68.53 76.03 61.69 79.78 54.75 79.69C48.94 82.13 41.81 81.09 36.66 78.28C29.91 78.28 23.63 74.16 20.63 68.16C15.28 63.94 13.13 56.91 14.81 50.53C12.38 43.97 14.06 36.56 17.81 31.31C19.31 24.66 24.84 19.78 31.41 18.19C35.81 14.91 42 13.59 48 14.25Z"/>
    </clipPath>
  </defs>
  <path d="M48 14.25C54.47 13.59 60.94 15.28 66.09 18.94C72.38 21 77.06 26.53 78.28 33C81.56 38.53 81.84 45.56 79.88 51.38C80.44 58.31 77.25 65.25 71.91 69.56C68.53 76.03 61.69 79.78 54.75 79.69C48.94 82.13 41.81 81.09 36.66 78.28C29.91 78.28 23.63 74.16 20.63 68.16C15.28 63.94 13.13 56.91 14.81 50.53C12.38 43.97 14.06 36.56 17.81 31.31C19.31 24.66 24.84 19.78 31.41 18.19C35.81 14.91 42 13.59 48 14.25Z" fill="#326B3D"/>
  <g clip-path="url(#ball)">
    <path d="M11.44 40.78C18.38 22.31 36.28 11.72 54.09 15.28C49.13 19.13 45.75 23.91 44.44 29.63C40.41 28.41 36.09 28.88 32.72 31.5C28.59 34.59 26.34 39.56 25.97 45.09C20.53 45.94 15.47 44.44 11.44 40.78Z" fill="#8FB778"/>
    <path d="M65.53 17.34C76.31 22.5 82.03 33.19 81 44.63C80.44 51.38 77.44 57 71.91 61.5C66.38 66 60 67.78 52.88 66.75C56.53 61.5 57.56 55.78 55.88 49.59C54.28 43.78 51.19 39.47 46.59 36.66C53.06 34.97 57.84 31.03 60.84 24.84C62.16 22.03 63.75 19.59 65.53 17.34Z" fill="#1F5133"/>
    <path d="M25.59 69.09C29.53 61.22 36.28 56.34 44.25 55.41C48.84 54.84 53.25 55.88 57.28 58.41C53.44 62.34 51.56 67.31 51.84 73.31C43.88 78.47 33.28 77.06 25.59 69.09Z" fill="#5F914F"/>
  </g>
</svg>
