<svg xmlns="http://www.w3.org/2000/svg" viewBox="0 0 1024 1024">
  <defs>
    <clipPath id="ball">
      <path d="M512 152C581 145 650 163 705 202C772 224 822 283 835 352C870 411 873 486 852 548C858 622 824 696 767 742C731 811 658 851 584 850C522 876 446 865 391 835C319 835 252 791 220 727C163 682 140 607 158 539C132 469 150 390 190 334C206 263 265 211 335 194C382 159 448 145 512 152Z"/>
    </clipPath>
  </defs>
  <path d="M699 185C814 240 875 354 864 476C858 548 826 608 767 656C708 704 640 723 564 712C603 656 614 595 596 529C579 467 546 421 497 391C566 373 617 331 649 265C663 235 680 209 699 185Z" fill="#1F5133" clip-path="url(#ball)"/>
</svg>
