<svg xmlns="http://www.w3.org/2000/svg" viewBox="0 0 1024 1024">
  <defs>
    <clipPath id="ball">
      <path d="M512 152C581 145 650 163 705 202C772 224 822 283 835 352C870 411 873 486 852 548C858 622 824 696 767 742C731 811 658 851 584 850C522 876 446 865 391 835C319 835 252 791 220 727C163 682 140 607 158 539C132 469 150 390 190 334C206 263 265 211 335 194C382 159 448 145 512 152Z"/>
    </clipPath>
  </defs>
  <g clip-path="url(#ball)">
    <path d="M122 435C196 238 387 125 577 163C524 204 488 255 474 316C431 303 385 308 349 336C305 369 281 422 277 481C219 490 165 474 122 435Z" fill="#8FB778"/>
    <path d="M273 737C315 653 387 601 472 591C521 585 568 596 611 623C570 665 550 718 553 782C468 837 355 822 273 737Z" fill="#5F914F"/>
  </g>
</svg>
