<svg xmlns="http://www.w3.org/2000/svg" viewBox="0 0 1024 1024">
  <defs>
    <linearGradient id="pin" x1="384" y1="152" x2="684" y2="764" gradientUnits="userSpaceOnUse">
      <stop offset="0" stop-color="#ff7b6e"/>
      <stop offset="0.42" stop-color="#ff304f"/>
      <stop offset="1" stop-color="#a9133d"/>
    </linearGradient>
    <radialGradient id="highlight" cx="0" cy="0" r="1" gradientUnits="userSpaceOnUse" gradientTransform="translate(470 296) rotate(55) scale(182 116)">
      <stop offset="0" stop-color="#ffffff" stop-opacity="0.62"/>
      <stop offset="1" stop-color="#ffffff" stop-opacity="0"/>
    </radialGradient>
    <filter id="pinShadow" x="-35%" y="-25%" width="170%" height="170%">
      <feDropShadow dx="0" dy="32" stdDeviation="30" flood-color="#5d1429" flood-opacity="0.45"/>
    </filter>
  </defs>
  <ellipse cx="526" cy="805" rx="170" ry="43" fill="#113d45" fill-opacity="0.24"/>
  <g filter="url(#pinShadow)">
    <path d="M525 134c-150 0-271 119-271 265 0 189 216 427 261 474a15 15 0 0 0 21 0c46-47 261-285 261-474 0-146-121-265-272-265Z" fill="url(#pin)"/>
    <path d="M525 134c-150 0-271 119-271 265 0 189 216 427 261 474a15 15 0 0 0 21 0c46-47 261-285 261-474 0-146-121-265-272-265Z" fill="url(#highlight)"/>
    <circle cx="525" cy="399" r="103" fill="#ffffff"/>
    <circle cx="525" cy="399" r="42" fill="#e92245"/>
    <path d="M397 224c43-35 96-53 157-53 54 0 103 16 146 47" fill="none" stroke="#ffffff" stroke-width="20" stroke-linecap="round" stroke-opacity="0.48"/>
  </g>
</svg>
