<svg xmlns="http://www.w3.org/2000/svg" viewBox="0 0 1024 1024">
  <defs>
    <linearGradient id="tealPin" x1="216" y1="330" x2="398" y2="628" gradientUnits="userSpaceOnUse">
      <stop offset="0" stop-color="#25d4c5"/>
      <stop offset="1" stop-color="#006b7a"/>
    </linearGradient>
    <linearGradient id="amberPin" x1="676" y1="238" x2="850" y2="526" gradientUnits="userSpaceOnUse">
      <stop offset="0" stop-color="#ffd166"/>
      <stop offset="1" stop-color="#e8582f"/>
    </linearGradient>
    <filter id="pinShadow" x="-35%" y="-25%" width="170%" height="170%">
      <feDropShadow dx="0" dy="18" stdDeviation="17" flood-color="#10343a" flood-opacity="0.36"/>
    </filter>
  </defs>
  <g filter="url(#pinShadow)">
    <path d="M306 343c-77 0-139 61-139 136 0 97 111 218 134 242a8 8 0 0 0 11 0c24-24 134-145 134-242 0-75-62-136-140-136Z" fill="url(#tealPin)"/>
    <circle cx="306" cy="479" r="51" fill="#ffffff"/>
    <circle cx="306" cy="479" r="21" fill="#006f7d"/>
  </g>
  <g filter="url(#pinShadow)">
    <path d="M776 252c-71 0-128 56-128 125 0 90 102 201 124 224a7 7 0 0 0 10 0c22-23 124-134 124-224 0-69-58-125-130-125Z" fill="url(#amberPin)"/>
    <circle cx="776" cy="377" r="47" fill="#ffffff"/>
    <circle cx="776" cy="377" r="19" fill="#d95a2d"/>
  </g>
</svg>
